<?xml version="1.0" encoding="utf-8"?>
<!-- Generator: Adobe Illustrator 17.0.0, SVG Export Plug-In . SVG Version: 6.00 Build 0)  -->
<!DOCTYPE svg PUBLIC "-//W3C//DTD SVG 1.1//EN" "http://www.w3.org/Graphics/SVG/1.1/DTD/svg11.dtd">
<svg version="1.1" id="Layer_1" xmlns="http://www.w3.org/2000/svg" xmlns:xlink="http://www.w3.org/1999/xlink" x="0px" y="0px"
	 width="84.5px" height="18.5px" viewBox="-4.413 -4.768 84.5 18.5" enable-background="new -4.413 -4.768 84.5 18.5"
	 xml:space="preserve">
<g>
	<path id="Fill-1" fill="#FFFFFF" d="M9.17,1.367L10.3,1.5c0.505,0.058,0.562,0.487,0.562,0.76v1.353H5.656v-1.35
		c0-0.274,0.054-0.702,0.562-0.76l1.13-0.136V0.211H0.583v1.158l1.13,0.136c0.505,0.058,0.562,0.487,0.562,0.76v4.434
		c0,0.274-0.054,0.704-0.562,0.76l-1.13,0.133V8.75h6.765V7.594l-1.13-0.133C5.71,7.402,5.656,6.974,5.656,6.701V5.343h5.206v1.355
		c0,0.274-0.056,0.704-0.562,0.76L9.17,7.594v1.158h6.765V7.594l-1.13-0.133c-0.508-0.059-0.562-0.487-0.562-0.76V2.264
		c0-0.274,0.056-0.702,0.562-0.76l1.13-0.136V0.212H9.17V1.367z"/>
	<path id="Fill-3" fill="#FFFFFF" d="M53.665,7.117l-2.834,0.002V1.847h2.834c1.671,0,2.239,0.803,2.239,2.635
		C55.904,6.314,55.336,7.117,53.665,7.117 M54.281,0.212h-8.352V1.37l0.997,0.105c0.356,0.044,0.59,0.199,0.59,0.697V6.7
		c0,0.274-0.056,0.704-0.562,0.76l-1.13,0.133v1.158h8.454c3.026,0,5.513-1.233,5.513-4.27C59.794,1.445,57.306,0.212,54.281,0.212"
		/>
	<path id="Fill-5" fill="#FFFFFF" d="M64.532,4.625l1.598-2.63l1.699,2.63C67.829,4.625,64.532,4.625,64.532,4.625z M74.012,7.475
		c-0.534-0.063-0.702-0.412-0.868-0.669L69.25,0.781c-0.278-0.433-0.482-0.569-0.899-0.569h-6.412V1.37l1.528,0.175
		c0.208,0.023,0.51,0.321,0.269,0.721L60.86,7.002c-0.117,0.192-0.262,0.417-0.594,0.461l-1.144,0.129V8.75h5.405V7.594
		l-0.931-0.096c-0.398-0.042-0.608-0.323-0.412-0.651l0.433-0.711h5.19l0.384,0.59c0.337,0.519-0.089,0.732-0.456,0.772
		l-0.957,0.098v1.158h7.312v-1.16L74.012,7.475L74.012,7.475z"/>
	<path id="Fill-8" fill="#FFFFFF" d="M39.89,1.367l1.13,0.136c0.508,0.058,0.562,0.487,0.562,0.76v4.273l-4.467-5.962
		c-0.201-0.274-0.377-0.363-0.856-0.363h-5.802v1.158l1.13,0.136c0.505,0.058,0.562,0.487,0.562,0.76v4.434
		c0,0.274-0.056,0.704-0.562,0.76l-1.13,0.133V8.75h5.403V7.594l-1.13-0.133c-0.505-0.059-0.562-0.487-0.562-0.76V2.428l4.467,5.962
		c0.201,0.274,0.377,0.363,0.856,0.363h0.04h4.072V2.264c0-0.274,0.056-0.702,0.562-0.76l1.13-0.136V0.212H39.89
		C39.89,0.212,39.89,1.367,39.89,1.367z"/>
	<path id="Fill-10" fill="#FFFFFF" d="M23.182,7.419c-2.129,0-3.016-0.903-3.016-2.937s0.887-2.937,3.016-2.937
		s3.017,0.904,3.017,2.937S25.312,7.419,23.182,7.419 M23.182-0.083c-5.494,0-6.912,2.434-6.912,4.565
		c0,2.129,1.418,4.565,6.912,4.565s6.912-2.434,6.912-4.565S28.677-0.083,23.182-0.083"/>
</g>
</svg>
