<svg xmlns="http://www.w3.org/2000/svg" width="413.086" height="174.176" viewBox="5.389 5.616 413.086 174.176"><desc>Exolutus</desc><radialGradient id="a" cx="223.122" cy="579.512" r="12.426" gradientTransform="matrix(.8773 0 0 .9037 -109.263 -429.224)" gradientUnits="userSpaceOnUse"><stop offset="0" stop-color="#FFF"/><stop offset=".082" stop-color="#FFF5DA"/><stop offset=".214" stop-color="#FFE7A6"/><stop offset=".348" stop-color="#FEDA78"/><stop offset=".481" stop-color="#FED053"/><stop offset=".613" stop-color="#FEC836"/><stop offset=".744" stop-color="#FEC221"/><stop offset=".874" stop-color="#FEBF15"/><stop offset="1" stop-color="#FEBE11"/></radialGradient><ellipse fill="url(#a)" cx="86.482" cy="94.481" rx="11.38" ry="14.353"/><path d="M101.852 94.258c0 5.442-1.37 9.69-4.112 12.747-2.74 3.057-6.528 4.585-11.36 4.585-2.985 0-5.634-.7-7.95-2.102-2.314-1.4-4.1-3.41-5.36-6.03-1.26-2.62-1.89-5.686-1.89-9.2 0-5.44 1.362-9.68 4.083-12.715 2.72-3.036 6.498-4.554 11.33-4.554 4.67 0 8.382 1.552 11.134 4.66 2.75 3.106 4.127 7.31 4.127 12.61l-.002-.002zm-25.433 0c0 4.264.852 7.514 2.557 9.747 1.706 2.234 4.213 3.35 7.524 3.35 3.31 0 5.824-1.11 7.54-3.334 1.716-2.223 2.574-5.477 2.574-9.76 0-4.245-.86-7.47-2.574-9.673-1.716-2.203-4.25-3.305-7.6-3.305-3.31 0-5.808 1.086-7.493 3.26-1.685 2.172-2.527 5.412-2.528 9.716zm-55.07 17.33c-4.935 0-8.828-1.502-11.68-4.507-2.854-3.004-4.28-7.177-4.28-12.518 0-5.38 1.323-9.656 3.974-12.823 2.65-3.17 6.208-4.753 10.676-4.753 4.183 0 7.493 1.375 9.93 4.127 2.437 2.75 3.655 6.38 3.655 10.888V95.2H10.628c.1 3.92 1.09 6.894 2.97 8.924 1.878 2.03 4.524 3.046 7.935 3.046 3.594 0 7.147-.75 10.66-2.253v4.508c-1.786.772-3.477 1.325-5.07 1.66-1.595.336-3.52.505-5.773.504zm-1.37-30.367c-2.68 0-4.82.874-6.413 2.62s-2.533 4.163-2.817 7.25h17.453c0-3.19-.71-5.63-2.132-7.326-1.42-1.695-3.45-2.543-6.09-2.543zm30.305 12.672L38.68 77.597h5.757L53.24 90.39l8.772-12.793h5.695L56.105 93.892 68.32 110.98H62.59l-9.35-13.524-9.444 13.524H38.07l12.215-17.088zM112.696 110.98h-5.056V63.586h5.056v47.394zm15.473-33.383v21.657c0 2.72.618 4.75 1.857 6.09 1.238 1.342 3.177 2.012 5.817 2.012 3.492 0 6.046-.955 7.66-2.864 1.614-1.908 2.42-5.025 2.42-9.35V77.596h5.058v33.382h-4.173l-.732-4.48h-.274c-1.036 1.646-2.472 2.905-4.31 3.778s-3.934 1.31-6.29 1.31c-4.06 0-7.102-.965-9.12-2.895-2.022-1.928-3.032-5.016-3.032-9.26V77.595h5.116v.002zm44.317 29.82c.893 0 1.756-.066 2.59-.2.83-.13 1.492-.268 1.98-.41v3.868c-.55.264-1.357.482-2.422.655-1.066.173-2.026.26-2.88.26-6.456 0-9.685-3.403-9.685-10.205V81.527h-4.782V79.09l4.782-2.1 2.132-7.13h2.924v7.737h9.687v3.93h-9.687v19.646c0 2.01.478 3.554 1.432 4.63s2.263 1.614 3.93 1.613zm15.99-29.82v21.657c0 2.72.62 4.75 1.86 6.09 1.237 1.342 3.177 2.012 5.816 2.012 3.493 0 6.047-.955 7.66-2.864 1.615-1.908 2.422-5.025 2.422-9.35V77.596h5.057v33.382h-4.173l-.732-4.48h-.274c-1.036 1.646-2.472 2.905-4.31 3.778s-3.934 1.31-6.29 1.31c-4.06 0-7.102-.965-9.12-2.895-2.022-1.928-3.032-5.016-3.032-9.26V77.595h5.116v.002zm55.07 24.276c0 3.106-1.158 5.503-3.474 7.188-2.314 1.687-5.562 2.53-9.746 2.53-4.427 0-7.878-.702-10.356-2.103v-4.69c1.605.812 3.326 1.452 5.164 1.92 1.837.467 3.61.7 5.315.7 2.638 0 4.668-.42 6.09-1.263 1.42-.843 2.133-2.127 2.133-3.854 0-1.3-.565-2.41-1.69-3.335-1.127-.924-3.325-2.016-6.594-3.274-3.108-1.157-5.317-2.166-6.627-3.03-1.31-.863-2.284-1.843-2.923-2.94-.64-1.096-.96-2.406-.96-3.928 0-2.72 1.107-4.87 3.32-6.443 2.213-1.574 5.25-2.36 9.107-2.36 3.594 0 7.106.73 10.538 2.192l-1.796 4.112c-3.35-1.38-6.387-2.07-9.107-2.07-2.396 0-4.203.376-5.422 1.126-1.218.75-1.827 1.787-1.827 3.106 0 .894.23 1.655.686 2.285.456.63 1.19 1.23 2.207 1.798 1.016.57 2.965 1.392 5.85 2.468 3.958 1.442 6.634 2.894 8.025 4.355 1.39 1.464 2.086 3.303 2.086 5.515v-.002z"/><path vector-effect="non-scaling-stroke" fill="#FFF" d="M246.93 92.704l79.26-79.26 79.26 79.26-79.26 79.26-79.26-79.26"/><path vector-effect="non-scaling-stroke" fill="#CCC" d="M246.146 92.704l80.39-87.088v174.176l-80.39-87.088"/><path vector-effect="non-scaling-stroke" fill="#B3B3B3" d="M326.19 179.613V5.796l92.285 86.91-92.284 86.907"/><path vector-effect="non-scaling-stroke" fill="#FFF" d="M246.93 92.704l79.26-79.26 3.446 3.447-79.26 79.26-3.445-3.446m75.814 75.813l79.26-79.26 3.445 3.447-79.26 79.26-3.446-3.447"/><path vector-effect="non-scaling-stroke" fill="#FFF" d="M246.93 92.704l3.447-3.446 79.26 79.26-3.447 3.445-79.26-79.26m75.814-75.812l3.446-3.445 79.26 79.26-3.447 3.445-79.26-79.26"/><path vector-effect="non-scaling-stroke" fill="#FFF" d="M253.48 92.705l3.79-3.79 3.79 3.79-3.79 3.79-3.79-3.79"/><path vector-effect="non-scaling-stroke" d="M256.925 89.26l3.79-3.792 3.79 3.79-3.79 3.79-3.79-3.79"/><path vector-effect="non-scaling-stroke" fill="#FFF" d="M260.372 85.812l3.79-3.79 3.79 3.79-3.79 3.79-3.79-3.79"/><path vector-effect="non-scaling-stroke" fill="#FFF" d="M263.818 82.366l3.79-3.79 3.79 3.79-3.79 3.79-3.79-3.79"/><path vector-effect="non-scaling-stroke" d="M267.263 78.92l3.79-3.79 3.792 3.79-3.79 3.79-3.792-3.79"/><path vector-effect="non-scaling-stroke" d="M270.71 75.475l3.79-3.79 3.79 3.79-3.79 3.79-3.79-3.79"/><path vector-effect="non-scaling-stroke" d="M274.155 72.03l3.79-3.792 3.792 3.79-3.79 3.79-3.792-3.79"/><path vector-effect="non-scaling-stroke" fill="#FFF" d="M277.602 68.583l3.79-3.79 3.79 3.79-3.79 3.79-3.79-3.79"/><path vector-effect="non-scaling-stroke" fill="#FFF" d="M281.048 65.136l3.79-3.79 3.79 3.79-3.79 3.79-3.79-3.79"/><path vector-effect="non-scaling-stroke" fill="#FFF" d="M284.494 61.69l3.79-3.79 3.79 3.79-3.79 3.79-3.79-3.79"/><path vector-effect="non-scaling-stroke" fill="#FFF" d="M287.94 58.244l3.79-3.79 3.79 3.79-3.79 3.79-3.79-3.79"/><path vector-effect="non-scaling-stroke" d="M291.385 54.798l3.79-3.79 3.79 3.79-3.79 3.79-3.79-3.79"/><path vector-effect="non-scaling-stroke" d="M294.83 51.352l3.792-3.79 3.79 3.79-3.79 3.79-3.79-3.79"/><path vector-effect="non-scaling-stroke" fill="#FFF" d="M298.277 47.906l3.79-3.79 3.792 3.79-3.792 3.79-3.79-3.79"/><path vector-effect="non-scaling-stroke" fill="#C00" d="M301.723 44.46l3.79-3.79 3.792 3.79-3.79 3.79-3.792-3.79"/><path vector-effect="non-scaling-stroke" fill="#C00" d="M305.17 41.014l3.79-3.79 3.79 3.79-3.79 3.79-3.79-3.79"/><path vector-effect="non-scaling-stroke" fill="#C00" d="M308.616 37.57l3.79-3.792 3.79 3.79-3.79 3.79-3.79-3.79"/><path vector-effect="non-scaling-stroke" fill="#C00" d="M312.062 34.123l3.79-3.79 3.79 3.79-3.79 3.79-3.79-3.79"/><path vector-effect="non-scaling-stroke" fill="#C00" d="M315.508 30.677l3.79-3.79 3.79 3.79-3.79 3.79-3.79-3.79"/><path vector-effect="non-scaling-stroke" fill="#C00" d="M318.954 27.23l3.79-3.79 3.79 3.79-3.79 3.79-3.79-3.79"/><path vector-effect="non-scaling-stroke" fill="#C00" d="M322.4 23.785l3.79-3.79 3.79 3.79-3.79 3.79-3.79-3.79"/><path vector-effect="non-scaling-stroke" fill="#FFF" d="M256.925 96.15l3.79-3.79 3.79 3.79-3.79 3.79-3.79-3.79"/><path vector-effect="non-scaling-stroke" fill="#FFF" d="M260.372 92.705l3.79-3.79 3.79 3.79-3.79 3.79-3.79-3.79"/><path vector-effect="non-scaling-stroke" fill="#FFF" d="M263.818 89.26l3.79-3.792 3.79 3.79-3.79 3.79-3.79-3.79"/><path vector-effect="non-scaling-stroke" fill="#FFF" d="M267.264 85.812l3.79-3.79 3.79 3.79-3.79 3.79-3.79-3.79"/><path vector-effect="non-scaling-stroke" d="M270.71 82.367l3.79-3.79 3.79 3.79-3.79 3.79-3.79-3.79"/><path vector-effect="non-scaling-stroke" fill="#FFF" d="M274.155 78.92l3.79-3.79 3.792 3.79-3.79 3.79-3.792-3.79"/><path vector-effect="non-scaling-stroke" fill="#FFF" d="M277.602 75.475l3.79-3.79 3.79 3.79-3.79 3.79-3.79-3.79"/><path vector-effect="non-scaling-stroke" d="M281.048 72.03l3.79-3.792 3.79 3.79-3.79 3.79-3.79-3.79"/><path vector-effect="non-scaling-stroke" d="M284.494 68.583l3.79-3.79 3.79 3.79-3.79 3.79-3.79-3.79"/><path vector-effect="non-scaling-stroke" fill="#FFF" d="M287.94 65.136l3.79-3.79 3.79 3.79-3.79 3.79-3.79-3.79"/><path vector-effect="non-scaling-stroke" d="M291.385 61.69l3.79-3.79 3.79 3.79-3.79 3.79-3.79-3.79"/><path vector-effect="non-scaling-stroke" fill="#FFF" d="M294.83 58.244l3.792-3.79 3.79 3.79-3.79 3.79-3.79-3.79"/><path vector-effect="non-scaling-stroke" d="M298.277 54.798l3.79-3.79 3.792 3.79-3.792 3.79-3.79-3.79"/><path vector-effect="non-scaling-stroke" fill="#FFF" d="M301.723 51.352l3.79-3.79 3.792 3.79-3.79 3.79-3.792-3.79"/><path vector-effect="non-scaling-stroke" fill="#C00" d="M305.17 47.906l3.79-3.79 3.79 3.79-3.79 3.79-3.79-3.79"/><path vector-effect="non-scaling-stroke" fill="#FFF" d="M308.616 44.46l3.79-3.79 3.79 3.79-3.79 3.79-3.79-3.79"/><path vector-effect="non-scaling-stroke" fill="#FFF" d="M312.062 41.015l3.79-3.79 3.79 3.79-3.79 3.79-3.79-3.79"/><path vector-effect="non-scaling-stroke" fill="#FFF" d="M315.508 37.57l3.79-3.792 3.79 3.79-3.79 3.79-3.79-3.79"/><path vector-effect="non-scaling-stroke" fill="#FFF" d="M318.954 34.123l3.79-3.79 3.79 3.79-3.79 3.79-3.79-3.79"/><path vector-effect="non-scaling-stroke" fill="#FFF" d="M322.4 30.677l3.79-3.79 3.79 3.79-3.79 3.79-3.79-3.79"/><path vector-effect="non-scaling-stroke" fill="#C00" d="M325.846 27.23l3.79-3.79 3.79 3.79-3.79 3.79-3.79-3.79"/><path vector-effect="non-scaling-stroke" d="M260.37 99.596l3.792-3.79 3.79 3.79-3.79 3.79-3.79-3.79"/><path vector-effect="non-scaling-stroke" fill="#FFF" d="M263.817 96.15l3.79-3.79 3.792 3.79-3.792 3.79-3.79-3.79"/><path vector-effect="non-scaling-stroke" d="M267.263 92.704l3.79-3.79 3.792 3.79-3.79 3.79-3.792-3.79"/><path vector-effect="non-scaling-stroke" fill="#FFF" d="M270.71 89.258l3.79-3.79 3.79 3.79-3.79 3.79-3.79-3.79"/><path vector-effect="non-scaling-stroke" d="M274.155 85.812l3.79-3.79 3.79 3.79-3.79 3.79-3.79-3.79"/><path vector-effect="non-scaling-stroke" d="M277.6 82.366l3.79-3.79 3.792 3.79-3.79 3.79-3.79-3.79"/><path vector-effect="non-scaling-stroke" fill="#FFF" d="M281.047 78.92l3.79-3.79 3.79 3.79-3.79 3.79-3.79-3.79"/><path vector-effect="non-scaling-stroke" d="M284.493 75.474l3.79-3.79 3.79 3.79-3.79 3.79-3.79-3.79"/><path vector-effect="non-scaling-stroke" d="M287.94 72.028l3.79-3.79 3.79 3.79-3.79 3.79-3.79-3.79"/><path vector-effect="non-scaling-stroke" d="M291.385 68.582l3.79-3.79 3.79 3.79-3.79 3.79-3.79-3.79"/><path vector-effect="non-scaling-stroke" d="M294.83 65.136l3.792-3.79 3.79 3.79-3.79 3.79-3.79-3.79"/><path vector-effect="non-scaling-stroke" fill="#FFF" d="M298.277 61.69l3.79-3.79 3.792 3.79-3.792 3.79-3.79-3.79"/><path vector-effect="non-scaling-stroke" fill="#FFF" d="M301.723 58.244l3.79-3.79 3.792 3.79-3.79 3.79-3.792-3.79"/><path vector-effect="non-scaling-stroke" fill="#FFF" d="M305.17 54.798l3.79-3.79 3.79 3.79-3.79 3.79-3.79-3.79"/><path vector-effect="non-scaling-stroke" fill="#C00" d="M308.616 51.352l3.79-3.79 3.79 3.79-3.79 3.79-3.79-3.79"/><path vector-effect="non-scaling-stroke" fill="#FFF" d="M312.06 47.906l3.792-3.79 3.79 3.79-3.79 3.79-3.79-3.79"/><path vector-effect="non-scaling-stroke" d="M315.507 44.46l3.79-3.79 3.79 3.79-3.79 3.79-3.79-3.79"/><path vector-effect="non-scaling-stroke" d="M318.953 41.014l3.79-3.79 3.79 3.79-3.79 3.79-3.79-3.79"/><path vector-effect="non-scaling-stroke" d="M322.4 37.568l3.79-3.79 3.79 3.79-3.79 3.79-3.79-3.79"/><path vector-effect="non-scaling-stroke" fill="#FFF" d="M325.845 34.122l3.79-3.79 3.792 3.79-3.79 3.79-3.792-3.79"/><path vector-effect="non-scaling-stroke" fill="#C00" d="M329.29 30.676l3.792-3.79 3.79 3.79-3.79 3.79-3.79-3.79"/><path vector-effect="non-scaling-stroke" d="M263.817 103.042l3.79-3.79 3.792 3.79-3.792 3.79-3.79-3.79"/><path vector-effect="non-scaling-stroke" d="M267.263 99.596l3.79-3.79 3.792 3.79-3.79 3.79-3.792-3.79"/><path vector-effect="non-scaling-stroke" d="M270.71 96.15l3.79-3.79 3.79 3.79-3.79 3.79-3.79-3.79"/><path vector-effect="non-scaling-stroke" d="M274.155 92.704l3.79-3.79 3.792 3.79-3.79 3.79-3.792-3.79"/><path vector-effect="non-scaling-stroke" d="M277.6 89.26l3.79-3.792 3.792 3.79-3.79 3.79-3.79-3.79"/><path vector-effect="non-scaling-stroke" fill="#FFF" d="M281.047 85.812l3.79-3.79 3.79 3.79-3.79 3.79-3.79-3.79"/><path vector-effect="non-scaling-stroke" d="M284.493 82.366l3.79-3.79 3.79 3.79-3.79 3.79-3.79-3.79"/><path vector-effect="non-scaling-stroke" d="M287.94 78.92l3.79-3.79 3.79 3.79-3.79 3.79-3.79-3.79"/><path vector-effect="non-scaling-stroke" d="M291.385 75.474l3.79-3.79 3.79 3.79-3.79 3.79-3.79-3.79"/><path vector-effect="non-scaling-stroke" fill="#FFF" d="M294.83 72.028l3.792-3.79 3.79 3.79-3.79 3.79-3.79-3.79"/><path vector-effect="non-scaling-stroke" d="M298.277 68.583l3.79-3.79 3.792 3.79-3.792 3.79-3.79-3.79"/><path vector-effect="non-scaling-stroke" d="M301.723 65.136l3.79-3.79 3.792 3.79-3.79 3.79-3.792-3.79"/><path vector-effect="non-scaling-stroke" d="M305.17 61.69l3.79-3.79 3.79 3.79-3.79 3.79-3.79-3.79"/><path vector-effect="non-scaling-stroke" fill="#FFF" d="M308.616 58.244l3.79-3.79 3.79 3.79-3.79 3.79-3.79-3.79"/><path vector-effect="non-scaling-stroke" fill="#C00" d="M312.062 54.798l3.79-3.79 3.79 3.79-3.79 3.79-3.79-3.79"/><path vector-effect="non-scaling-stroke" fill="#FFF" d="M315.507 51.352l3.79-3.79 3.79 3.79-3.79 3.79-3.79-3.79"/><path vector-effect="non-scaling-stroke" d="M318.953 47.906l3.79-3.79 3.79 3.79-3.79 3.79-3.79-3.79"/><path vector-effect="non-scaling-stroke" d="M322.4 44.46l3.79-3.79 3.79 3.79-3.79 3.79-3.79-3.79"/><path vector-effect="non-scaling-stroke" d="M325.845 41.014l3.79-3.79 3.792 3.79-3.79 3.79-3.792-3.79"/><path vector-effect="non-scaling-stroke" fill="#FFF" d="M329.29 37.568l3.792-3.79 3.79 3.79-3.79 3.79-3.79-3.79"/><path vector-effect="non-scaling-stroke" fill="#C00" d="M332.737 34.122l3.79-3.79 3.792 3.79-3.792 3.79-3.79-3.79"/><path vector-effect="non-scaling-stroke" fill="#FFF" d="M267.263 106.488l3.79-3.79 3.792 3.79-3.79 3.79-3.792-3.79"/><path vector-effect="non-scaling-stroke" fill="#FFF" d="M270.71 103.042l3.79-3.79 3.79 3.79-3.79 3.79-3.79-3.79"/><path vector-effect="non-scaling-stroke" fill="#FFF" d="M274.155 99.596l3.79-3.79 3.792 3.79-3.79 3.79-3.792-3.79"/><path vector-effect="non-scaling-stroke" fill="#FFF" d="M277.602 96.15l3.79-3.79 3.79 3.79-3.79 3.79-3.79-3.79"/><path vector-effect="non-scaling-stroke" fill="#FFF" d="M281.047 92.705l3.79-3.79 3.79 3.79-3.79 3.79-3.79-3.79"/><path vector-effect="non-scaling-stroke" d="M284.493 89.26l3.79-3.792 3.79 3.79-3.79 3.79-3.79-3.79"/><path vector-effect="non-scaling-stroke" fill="#FFF" d="M287.94 85.812l3.79-3.79 3.79 3.79-3.79 3.79-3.79-3.79"/><path vector-effect="non-scaling-stroke" d="M291.385 82.366l3.79-3.79 3.79 3.79-3.79 3.79-3.79-3.79"/><path vector-effect="non-scaling-stroke" fill="#FFF" d="M294.83 78.92l3.792-3.79 3.79 3.79-3.79 3.79-3.79-3.79"/><path vector-effect="non-scaling-stroke" d="M298.277 75.474l3.79-3.79 3.792 3.79-3.792 3.79-3.79-3.79"/><path vector-effect="non-scaling-stroke" fill="#FFF" d="M301.723 72.03l3.79-3.792 3.792 3.79-3.79 3.79-3.792-3.79"/><path vector-effect="non-scaling-stroke" fill="#FFF" d="M305.17 68.583l3.79-3.79 3.79 3.79-3.79 3.79-3.79-3.79"/><path vector-effect="non-scaling-stroke" fill="#FFF" d="M308.616 65.136l3.79-3.79 3.79 3.79-3.79 3.79-3.79-3.79"/><path vector-effect="non-scaling-stroke" fill="#FFF" d="M312.062 61.69l3.79-3.79 3.79 3.79-3.79 3.79-3.79-3.79"/><path vector-effect="non-scaling-stroke" fill="#C00" d="M315.508 58.244l3.79-3.79 3.79 3.79-3.79 3.79-3.79-3.79"/><path vector-effect="non-scaling-stroke" fill="#FFF" d="M318.953 54.798l3.79-3.79 3.79 3.79-3.79 3.79-3.79-3.79"/><path vector-effect="non-scaling-stroke" d="M322.4 51.352l3.79-3.79 3.79 3.79-3.79 3.79-3.79-3.79"/><path vector-effect="non-scaling-stroke" d="M325.845 47.906l3.79-3.79 3.792 3.79-3.79 3.79-3.792-3.79"/><path vector-effect="non-scaling-stroke" d="M329.29 44.46l3.792-3.79 3.79 3.79-3.79 3.79-3.79-3.79"/><path vector-effect="non-scaling-stroke" fill="#FFF" d="M332.737 41.014l3.79-3.79 3.792 3.79-3.792 3.79-3.79-3.79"/><path vector-effect="non-scaling-stroke" fill="#C00" d="M336.183 37.568l3.79-3.79 3.792 3.79-3.79 3.79-3.792-3.79"/><path vector-effect="non-scaling-stroke" fill="#FFF" d="M270.71 109.934l3.79-3.79 3.79 3.79-3.79 3.79-3.79-3.79"/><path vector-effect="non-scaling-stroke" d="M274.155 106.488l3.79-3.79 3.792 3.79-3.79 3.79-3.792-3.79"/><path vector-effect="non-scaling-stroke" fill="#FFF" d="M277.602 103.042l3.79-3.79 3.79 3.79-3.79 3.79-3.79-3.79"/><path vector-effect="non-scaling-stroke" fill="#FFF" d="M281.048 99.596l3.79-3.79 3.79 3.79-3.79 3.79-3.79-3.79"/><path vector-effect="non-scaling-stroke" fill="#FFF" d="M284.493 96.15l3.79-3.79 3.79 3.79-3.79 3.79-3.79-3.79"/><path vector-effect="non-scaling-stroke" d="M287.94 92.705l3.79-3.79 3.79 3.79-3.79 3.79-3.79-3.79"/><path vector-effect="non-scaling-stroke" fill="#FFF" d="M291.385 89.26l3.79-3.792 3.79 3.79-3.79 3.79-3.79-3.79"/><path vector-effect="non-scaling-stroke" fill="#FFF" d="M294.83 85.812l3.792-3.79 3.79 3.79-3.79 3.79-3.79-3.79"/><path vector-effect="non-scaling-stroke" fill="#FFF" d="M298.277 82.366l3.79-3.79 3.792 3.79-3.792 3.79-3.79-3.79"/><path vector-effect="non-scaling-stroke" fill="#FFF" d="M301.723 78.92l3.79-3.79 3.792 3.79-3.79 3.79-3.792-3.79"/><path vector-effect="non-scaling-stroke" fill="#FFF" d="M305.17 75.475l3.79-3.79 3.79 3.79-3.79 3.79-3.79-3.79"/><path vector-effect="non-scaling-stroke" fill="#FFF" d="M308.616 72.03l3.79-3.792 3.79 3.79-3.79 3.79-3.79-3.79"/><path vector-effect="non-scaling-stroke" fill="#FFF" d="M312.062 68.583l3.79-3.79 3.79 3.79-3.79 3.79-3.79-3.79"/><path vector-effect="non-scaling-stroke" fill="#FFF" d="M315.508 65.136l3.79-3.79 3.79 3.79-3.79 3.79-3.79-3.79"/><path vector-effect="non-scaling-stroke" fill="#C00" d="M318.954 61.69l3.79-3.79 3.79 3.79-3.79 3.79-3.79-3.79"/><path vector-effect="non-scaling-stroke" fill="#FFF" d="M322.4 58.244l3.79-3.79 3.79 3.79-3.79 3.79-3.79-3.79"/><path vector-effect="non-scaling-stroke" fill="#FFF" d="M325.845 54.798l3.79-3.79 3.792 3.79-3.79 3.79-3.792-3.79"/><path vector-effect="non-scaling-stroke" fill="#FFF" d="M329.29 51.352l3.792-3.79 3.79 3.79-3.79 3.79-3.79-3.79"/><path vector-effect="non-scaling-stroke" fill="#FFF" d="M332.737 47.906l3.79-3.79 3.792 3.79-3.792 3.79-3.79-3.79"/><path vector-effect="non-scaling-stroke" fill="#FFF" d="M336.183 44.46l3.79-3.79 3.792 3.79-3.79 3.79-3.792-3.79"/><path vector-effect="non-scaling-stroke" fill="#C00" d="M339.63 41.014l3.79-3.79 3.79 3.79-3.79 3.79-3.79-3.79"/><path vector-effect="non-scaling-stroke" fill="#FFF" d="M274.155 113.38l3.79-3.79 3.792 3.79-3.79 3.79-3.792-3.79"/><path vector-effect="non-scaling-stroke" d="M277.602 109.934l3.79-3.79 3.79 3.79-3.79 3.79-3.79-3.79"/><path vector-effect="non-scaling-stroke" fill="#FFF" d="M281.048 106.488l3.79-3.79 3.79 3.79-3.79 3.79-3.79-3.79"/><path vector-effect="non-scaling-stroke" fill="#FFF" d="M284.494 103.042l3.79-3.79 3.79 3.79-3.79 3.79-3.79-3.79"/><path vector-effect="non-scaling-stroke" d="M287.94 99.597l3.79-3.79 3.79 3.79-3.79 3.79-3.79-3.79"/><path vector-effect="non-scaling-stroke" d="M291.385 96.15l3.79-3.79 3.79 3.79-3.79 3.79-3.79-3.79"/><path vector-effect="non-scaling-stroke" d="M294.83 92.705l3.792-3.79 3.79 3.79-3.79 3.79-3.79-3.79"/><path vector-effect="non-scaling-stroke" fill="#FFF" d="M298.277 89.26l3.79-3.792 3.792 3.79-3.792 3.79-3.79-3.79"/><path vector-effect="non-scaling-stroke" d="M301.723 85.812l3.79-3.79 3.792 3.79-3.79 3.79-3.792-3.79"/><path vector-effect="non-scaling-stroke" d="M305.17 82.366l3.79-3.79 3.79 3.79-3.79 3.79-3.79-3.79"/><path vector-effect="non-scaling-stroke" d="M308.616 78.92l3.79-3.79 3.79 3.79-3.79 3.79-3.79-3.79"/><path vector-effect="non-scaling-stroke" fill="#FFF" d="M312.062 75.475l3.79-3.79 3.79 3.79-3.79 3.79-3.79-3.79"/><path vector-effect="non-scaling-stroke" d="M315.508 72.03l3.79-3.792 3.79 3.79-3.79 3.79-3.79-3.79"/><path vector-effect="non-scaling-stroke" fill="#FFF" d="M318.954 68.583l3.79-3.79 3.79 3.79-3.79 3.79-3.79-3.79"/><path vector-effect="non-scaling-stroke" fill="#C00" d="M322.4 65.136l3.79-3.79 3.79 3.79-3.79 3.79-3.79-3.79"/><path vector-effect="non-scaling-stroke" fill="#C00" d="M325.845 61.69l3.79-3.79 3.792 3.79-3.79 3.79-3.792-3.79"/><path vector-effect="non-scaling-stroke" fill="#C00" d="M329.29 58.244l3.792-3.79 3.79 3.79-3.79 3.79-3.79-3.79"/><path vector-effect="non-scaling-stroke" fill="#C00" d="M332.737 54.798l3.79-3.79 3.792 3.79-3.792 3.79-3.79-3.79"/><path vector-effect="non-scaling-stroke" fill="#C00" d="M336.183 51.352l3.79-3.79 3.792 3.79-3.79 3.79-3.792-3.79"/><path vector-effect="non-scaling-stroke" fill="#C00" d="M339.63 47.906l3.79-3.79 3.79 3.79-3.79 3.79-3.79-3.79"/><path vector-effect="non-scaling-stroke" fill="#C00" d="M343.076 44.46l3.79-3.79 3.79 3.79-3.79 3.79-3.79-3.79"/><path vector-effect="non-scaling-stroke" d="M277.602 116.826l3.79-3.79 3.79 3.79-3.79 3.79-3.79-3.79"/><path vector-effect="non-scaling-stroke" fill="#FFF" d="M281.048 113.38l3.79-3.79 3.79 3.79-3.79 3.79-3.79-3.79"/><path vector-effect="non-scaling-stroke" d="M284.494 109.934l3.79-3.79 3.79 3.79-3.79 3.79-3.79-3.79"/><path vector-effect="non-scaling-stroke" fill="#FFF" d="M287.94 106.488l3.79-3.79 3.79 3.79-3.79 3.79-3.79-3.79"/><path vector-effect="non-scaling-stroke" fill="#FFF" d="M291.385 103.043l3.79-3.79 3.79 3.79-3.79 3.79-3.79-3.79"/><path vector-effect="non-scaling-stroke" fill="#FFF" d="M294.83 99.597l3.792-3.79 3.79 3.79-3.79 3.79-3.79-3.79"/><path vector-effect="non-scaling-stroke" d="M298.277 96.15l3.79-3.79 3.792 3.79-3.792 3.79-3.79-3.79"/><path vector-effect="non-scaling-stroke" d="M301.723 92.705l3.79-3.79 3.792 3.79-3.79 3.79-3.792-3.79"/><path vector-effect="non-scaling-stroke" fill="#FFF" d="M305.17 89.26l3.79-3.792 3.79 3.79-3.79 3.79-3.79-3.79"/><path vector-effect="non-scaling-stroke" d="M308.616 85.812l3.79-3.79 3.79 3.79-3.79 3.79-3.79-3.79"/><path vector-effect="non-scaling-stroke" fill="#FFF" d="M312.06 82.366l3.792-3.79 3.79 3.79-3.79 3.79-3.79-3.79"/><path vector-effect="non-scaling-stroke" fill="#FFF" d="M315.507 78.92l3.79-3.79 3.79 3.79-3.79 3.79-3.79-3.79"/><path vector-effect="non-scaling-stroke" d="M318.953 75.474l3.79-3.79 3.79 3.79-3.79 3.79-3.79-3.79"/><path vector-effect="non-scaling-stroke" fill="#FFF" d="M322.4 72.028l3.79-3.79 3.79 3.79-3.79 3.79-3.79-3.79"/><path vector-effect="non-scaling-stroke" fill="#FFF" d="M325.845 68.582l3.79-3.79 3.792 3.79-3.79 3.79-3.792-3.79"/><path vector-effect="non-scaling-stroke" fill="#FFF" d="M329.29 65.137l3.792-3.79 3.79 3.79-3.79 3.79-3.79-3.79"/><path vector-effect="non-scaling-stroke" fill="#FFF" d="M332.737 61.69l3.79-3.79 3.792 3.79-3.792 3.79-3.79-3.79"/><path vector-effect="non-scaling-stroke" fill="#FFF" d="M336.183 58.244l3.79-3.79 3.792 3.79-3.79 3.79-3.792-3.79"/><path vector-effect="non-scaling-stroke" fill="#FFF" d="M339.63 54.798l3.79-3.79 3.79 3.79-3.79 3.79-3.79-3.79"/><path vector-effect="non-scaling-stroke" fill="#FFF" d="M343.076 51.352l3.79-3.79 3.79 3.79-3.79 3.79-3.79-3.79"/><path vector-effect="non-scaling-stroke" fill="#FFF" d="M346.522 47.906l3.79-3.79 3.79 3.79-3.79 3.79-3.79-3.79"/><path vector-effect="non-scaling-stroke" d="M281.047 120.273l3.79-3.79 3.79 3.79-3.79 3.79-3.79-3.79"/><path vector-effect="non-scaling-stroke" d="M284.493 116.826l3.79-3.79 3.79 3.79-3.79 3.79-3.79-3.79"/><path vector-effect="non-scaling-stroke" fill="#FFF" d="M287.94 113.38l3.79-3.79 3.79 3.79-3.79 3.79-3.79-3.79"/><path vector-effect="non-scaling-stroke" fill="#FFF" d="M291.385 109.934l3.79-3.79 3.79 3.79-3.79 3.79-3.79-3.79"/><path vector-effect="non-scaling-stroke" d="M294.83 106.488l3.792-3.79 3.79 3.79-3.79 3.79-3.79-3.79"/><path vector-effect="non-scaling-stroke" d="M298.277 103.042l3.79-3.79 3.792 3.79-3.792 3.79-3.79-3.79"/><path vector-effect="non-scaling-stroke" fill="#FFF" d="M301.723 99.596l3.79-3.79 3.792 3.79-3.79 3.79-3.792-3.79"/><path vector-effect="non-scaling-stroke" fill="#FFF" d="M305.17 96.15l3.79-3.79 3.79 3.79-3.79 3.79-3.79-3.79"/><path vector-effect="non-scaling-stroke" fill="#FFF" d="M308.616 92.704l3.79-3.79 3.79 3.79-3.79 3.79-3.79-3.79"/><path vector-effect="non-scaling-stroke" d="M312.062 89.258l3.79-3.79 3.79 3.79-3.79 3.79-3.79-3.79"/><path vector-effect="non-scaling-stroke" d="M315.507 85.812l3.79-3.79 3.79 3.79-3.79 3.79-3.79-3.79"/><path vector-effect="non-scaling-stroke" d="M318.953 82.366l3.79-3.79 3.79 3.79-3.79 3.79-3.79-3.79"/><path vector-effect="non-scaling-stroke" fill="#FFF" d="M322.4 78.92l3.79-3.79 3.79 3.79-3.79 3.79-3.79-3.79"/><path vector-effect="non-scaling-stroke" fill="#FFF" d="M325.845 75.474l3.79-3.79 3.792 3.79-3.79 3.79-3.792-3.79"/><path vector-effect="non-scaling-stroke" d="M329.29 72.028l3.792-3.79 3.79 3.79-3.79 3.79-3.79-3.79"/><path vector-effect="non-scaling-stroke" d="M332.737 68.582l3.79-3.79 3.792 3.79-3.792 3.79-3.79-3.79"/><path vector-effect="non-scaling-stroke" fill="#FFF" d="M336.183 65.136l3.79-3.79 3.79 3.79-3.79 3.79-3.79-3.79"/><path vector-effect="non-scaling-stroke" fill="#FFF" d="M339.63 61.69l3.79-3.79 3.79 3.79-3.79 3.79-3.79-3.79"/><path vector-effect="non-scaling-stroke" d="M343.076 58.244l3.79-3.79 3.79 3.79-3.79 3.79-3.79-3.79"/><path vector-effect="non-scaling-stroke" d="M346.522 54.798l3.79-3.79 3.79 3.79-3.79 3.79-3.79-3.79"/><path vector-effect="non-scaling-stroke" d="M349.968 51.352l3.79-3.79 3.79 3.79-3.79 3.79-3.79-3.79m-65.475 72.367l3.79-3.792 3.79 3.79-3.79 3.79-3.79-3.79"/><path vector-effect="non-scaling-stroke" fill="#FFF" d="M287.94 120.273l3.79-3.79 3.79 3.79-3.79 3.79-3.79-3.79"/><path vector-effect="non-scaling-stroke" fill="#FFF" d="M291.385 116.826l3.79-3.79 3.79 3.79-3.79 3.79-3.79-3.79"/><path vector-effect="non-scaling-stroke" d="M294.83 113.38l3.792-3.79 3.79 3.79-3.79 3.79-3.79-3.79"/><path vector-effect="non-scaling-stroke" fill="#FFF" d="M298.277 109.934l3.79-3.79 3.792 3.79-3.792 3.79-3.79-3.79"/><path vector-effect="non-scaling-stroke" fill="#FFF" d="M301.723 106.488l3.79-3.79 3.792 3.79-3.79 3.79-3.792-3.79"/><path vector-effect="non-scaling-stroke" d="M305.17 103.042l3.79-3.79 3.79 3.79-3.79 3.79-3.79-3.79"/><path vector-effect="non-scaling-stroke" d="M308.616 99.596l3.79-3.79 3.79 3.79-3.79 3.79-3.79-3.79"/><path vector-effect="non-scaling-stroke" d="M312.062 96.15l3.79-3.79 3.79 3.79-3.79 3.79-3.79-3.79"/><path vector-effect="non-scaling-stroke" fill="#FFF" d="M315.508 92.704l3.79-3.79 3.79 3.79-3.79 3.79-3.79-3.79"/><path vector-effect="non-scaling-stroke" fill="#FFF" d="M318.953 89.26l3.79-3.792 3.79 3.79-3.79 3.79-3.79-3.79"/><path vector-effect="non-scaling-stroke" d="M322.4 85.812l3.79-3.79 3.79 3.79-3.79 3.79-3.79-3.79"/><path vector-effect="non-scaling-stroke" d="M325.845 82.366l3.79-3.79 3.792 3.79-3.79 3.79-3.792-3.79"/><path vector-effect="non-scaling-stroke" d="M329.29 78.92l3.792-3.79 3.79 3.79-3.79 3.79-3.79-3.79"/><path vector-effect="non-scaling-stroke" fill="#FFF" d="M332.737 75.474l3.79-3.79 3.792 3.79-3.792 3.79-3.79-3.79"/><path vector-effect="non-scaling-stroke" d="M336.183 72.028l3.79-3.79 3.792 3.79-3.79 3.79-3.792-3.79"/><path vector-effect="non-scaling-stroke" d="M339.63 68.583l3.79-3.79 3.79 3.79-3.79 3.79-3.79-3.79"/><path vector-effect="non-scaling-stroke" fill="#FFF" d="M343.076 65.136l3.79-3.79 3.79 3.79-3.79 3.79-3.79-3.79"/><path vector-effect="non-scaling-stroke" fill="#FFF" d="M346.522 61.69l3.79-3.79 3.79 3.79-3.79 3.79-3.79-3.79"/><path vector-effect="non-scaling-stroke" fill="#FFF" d="M349.968 58.244l3.79-3.79 3.79 3.79-3.79 3.79-3.79-3.79"/><path vector-effect="non-scaling-stroke" d="M353.414 54.798l3.79-3.79 3.79 3.79-3.79 3.79-3.79-3.79m-65.475 72.367l3.79-3.79 3.79 3.79-3.79 3.79-3.79-3.79"/><path vector-effect="non-scaling-stroke" fill="#FFF" d="M291.385 123.72l3.79-3.792 3.79 3.79-3.79 3.79-3.79-3.79"/><path vector-effect="non-scaling-stroke" d="M294.83 120.273l3.792-3.79 3.79 3.79-3.79 3.79-3.79-3.79"/><path vector-effect="non-scaling-stroke" fill="#FFF" d="M298.277 116.826l3.79-3.79 3.792 3.79-3.792 3.79-3.79-3.79"/><path vector-effect="non-scaling-stroke" fill="#FFF" d="M301.723 113.38l3.79-3.79 3.792 3.79-3.79 3.79-3.792-3.79"/><path vector-effect="non-scaling-stroke" d="M305.17 109.934l3.79-3.79 3.79 3.79-3.79 3.79-3.79-3.79"/><path vector-effect="non-scaling-stroke" fill="#FFF" d="M308.616 106.488l3.79-3.79 3.79 3.79-3.79 3.79-3.79-3.79"/><path vector-effect="non-scaling-stroke" fill="#FFF" d="M312.062 103.042l3.79-3.79 3.79 3.79-3.79 3.79-3.79-3.79"/><path vector-effect="non-scaling-stroke" fill="#FFF" d="M315.508 99.596l3.79-3.79 3.79 3.79-3.79 3.79-3.79-3.79"/><path vector-effect="non-scaling-stroke" d="M318.954 96.15l3.79-3.79 3.79 3.79-3.79 3.79-3.79-3.79"/><path vector-effect="non-scaling-stroke" d="M322.4 92.705l3.79-3.79 3.79 3.79-3.79 3.79-3.79-3.79"/><path vector-effect="non-scaling-stroke" d="M325.845 89.26l3.79-3.792 3.792 3.79-3.79 3.79-3.792-3.79"/><path vector-effect="non-scaling-stroke" d="M329.29 85.812l3.792-3.79 3.79 3.79-3.79 3.79-3.79-3.79"/><path vector-effect="non-scaling-stroke" fill="#FFF" d="M332.737 82.366l3.79-3.79 3.792 3.79-3.792 3.79-3.79-3.79"/><path vector-effect="non-scaling-stroke" d="M336.183 78.92l3.79-3.79 3.792 3.79-3.79 3.79-3.792-3.79"/><path vector-effect="non-scaling-stroke" fill="#FFF" d="M339.63 75.474l3.79-3.79 3.79 3.79-3.79 3.79-3.79-3.79"/><path vector-effect="non-scaling-stroke" fill="#FFF" d="M343.076 72.03l3.79-3.792 3.79 3.79-3.79 3.79-3.79-3.79"/><path vector-effect="non-scaling-stroke" d="M346.522 68.583l3.79-3.79 3.79 3.79-3.79 3.79-3.79-3.79"/><path vector-effect="non-scaling-stroke" fill="#FFF" d="M349.968 65.136l3.79-3.79 3.79 3.79-3.79 3.79-3.79-3.79"/><path vector-effect="non-scaling-stroke" d="M353.414 61.69l3.79-3.79 3.79 3.79-3.79 3.79-3.79-3.79"/><path vector-effect="non-scaling-stroke" d="M356.86 58.244l3.79-3.79 3.79 3.79-3.79 3.79-3.79-3.79m-65.475 72.367l3.79-3.79 3.79 3.79-3.79 3.79-3.79-3.79"/><path vector-effect="non-scaling-stroke" fill="#FFF" d="M294.83 127.165l3.792-3.79 3.79 3.79-3.79 3.79-3.79-3.79"/><path vector-effect="non-scaling-stroke" d="M298.277 123.72l3.79-3.792 3.792 3.79-3.792 3.79-3.79-3.79"/><path vector-effect="non-scaling-stroke" d="M301.723 120.273l3.79-3.79 3.792 3.79-3.79 3.79-3.792-3.79"/><path vector-effect="non-scaling-stroke" d="M305.17 116.826l3.79-3.79 3.79 3.79-3.79 3.79-3.79-3.79"/><path vector-effect="non-scaling-stroke" fill="#FFF" d="M308.616 113.38l3.79-3.79 3.79 3.79-3.79 3.79-3.79-3.79"/><path vector-effect="non-scaling-stroke" fill="#FFF" d="M312.062 109.934l3.79-3.79 3.79 3.79-3.79 3.79-3.79-3.79"/><path vector-effect="non-scaling-stroke" d="M315.508 106.488l3.79-3.79 3.79 3.79-3.79 3.79-3.79-3.79"/><path vector-effect="non-scaling-stroke" fill="#FFF" d="M318.954 103.042l3.79-3.79 3.79 3.79-3.79 3.79-3.79-3.79"/><path vector-effect="non-scaling-stroke" d="M322.4 99.596l3.79-3.79 3.79 3.79-3.79 3.79-3.79-3.79"/><path vector-effect="non-scaling-stroke" d="M325.845 96.15l3.79-3.79 3.792 3.79-3.79 3.79-3.792-3.79"/><path vector-effect="non-scaling-stroke" fill="#FFF" d="M329.29 92.705l3.792-3.79 3.79 3.79-3.79 3.79-3.79-3.79"/><path vector-effect="non-scaling-stroke" d="M332.737 89.26l3.79-3.792 3.792 3.79-3.792 3.79-3.79-3.79"/><path vector-effect="non-scaling-stroke" fill="#FFF" d="M336.183 85.812l3.79-3.79 3.792 3.79-3.79 3.79-3.792-3.79"/><path vector-effect="non-scaling-stroke" fill="#FFF" d="M339.63 82.366l3.79-3.79 3.79 3.79-3.79 3.79-3.79-3.79"/><path vector-effect="non-scaling-stroke" fill="#FFF" d="M343.076 78.92l3.79-3.79 3.79 3.79-3.79 3.79-3.79-3.79"/><path vector-effect="non-scaling-stroke" d="M346.522 75.475l3.79-3.79 3.79 3.79-3.79 3.79-3.79-3.79"/><path vector-effect="non-scaling-stroke" d="M349.968 72.03l3.79-3.792 3.79 3.79-3.79 3.79-3.79-3.79"/><path vector-effect="non-scaling-stroke" d="M353.414 68.583l3.79-3.79 3.79 3.79-3.79 3.79-3.79-3.79"/><path vector-effect="non-scaling-stroke" fill="#FFF" d="M356.86 65.136l3.79-3.79 3.79 3.79-3.79 3.79-3.79-3.79"/><path vector-effect="non-scaling-stroke" d="M360.306 61.69l3.79-3.79 3.79 3.79-3.79 3.79-3.79-3.79"/><path vector-effect="non-scaling-stroke" fill="#FFF" d="M294.83 134.057l3.792-3.79 3.79 3.79-3.79 3.79-3.79-3.79"/><path vector-effect="non-scaling-stroke" d="M298.277 130.61l3.79-3.79 3.792 3.79-3.792 3.79-3.79-3.79"/><path vector-effect="non-scaling-stroke" d="M301.723 127.165l3.79-3.79 3.792 3.79-3.79 3.79-3.792-3.79"/><path vector-effect="non-scaling-stroke" fill="#FFF" d="M305.17 123.72l3.79-3.792 3.79 3.79-3.79 3.79-3.79-3.79"/><path vector-effect="non-scaling-stroke" d="M308.616 120.273l3.79-3.79 3.79 3.79-3.79 3.79-3.79-3.79"/><path vector-effect="non-scaling-stroke" d="M312.062 116.826l3.79-3.79 3.79 3.79-3.79 3.79-3.79-3.79"/><path vector-effect="non-scaling-stroke" d="M315.508 113.38l3.79-3.79 3.79 3.79-3.79 3.79-3.79-3.79"/><path vector-effect="non-scaling-stroke" fill="#FFF" d="M318.954 109.934l3.79-3.79 3.79 3.79-3.79 3.79-3.79-3.79"/><path vector-effect="non-scaling-stroke" d="M322.4 106.488l3.79-3.79 3.79 3.79-3.79 3.79-3.79-3.79"/><path vector-effect="non-scaling-stroke" d="M325.846 103.042l3.79-3.79 3.79 3.79-3.79 3.79-3.79-3.79"/><path vector-effect="non-scaling-stroke" d="M329.29 99.597l3.792-3.79 3.79 3.79-3.79 3.79-3.79-3.79"/><path vector-effect="non-scaling-stroke" fill="#FFF" d="M332.737 96.15l3.79-3.79 3.792 3.79-3.792 3.79-3.79-3.79"/><path vector-effect="non-scaling-stroke" fill="#FFF" d="M336.183 92.705l3.79-3.79 3.792 3.79-3.79 3.79-3.792-3.79"/><path vector-effect="non-scaling-stroke" d="M339.63 89.26l3.79-3.792 3.79 3.79-3.79 3.79-3.79-3.79"/><path vector-effect="non-scaling-stroke" d="M343.076 85.812l3.79-3.79 3.79 3.79-3.79 3.79-3.79-3.79"/><path vector-effect="non-scaling-stroke" fill="#FFF" d="M346.522 82.366l3.79-3.79 3.79 3.79-3.79 3.79-3.79-3.79"/><path vector-effect="non-scaling-stroke" fill="#FFF" d="M349.968 78.92l3.79-3.79 3.79 3.79-3.79 3.79-3.79-3.79"/><path vector-effect="non-scaling-stroke" d="M353.414 75.475l3.79-3.79 3.79 3.79-3.79 3.79-3.79-3.79"/><path vector-effect="non-scaling-stroke" fill="#FFF" d="M356.86 72.03l3.79-3.792 3.79 3.79-3.79 3.79-3.79-3.79"/><path vector-effect="non-scaling-stroke" d="M360.306 68.583l3.79-3.79 3.79 3.79-3.79 3.79-3.79-3.79"/><path vector-effect="non-scaling-stroke" d="M363.752 65.136l3.79-3.79 3.79 3.79-3.79 3.79-3.79-3.79"/><path vector-effect="non-scaling-stroke" fill="#FFF" d="M298.277 137.502l3.79-3.79 3.792 3.79-3.792 3.79-3.79-3.79"/><path vector-effect="non-scaling-stroke" fill="#FFF" d="M301.723 134.056l3.79-3.79 3.792 3.79-3.79 3.79-3.792-3.79"/><path vector-effect="non-scaling-stroke" fill="#FFF" d="M305.17 130.61l3.79-3.79 3.79 3.79-3.79 3.79-3.79-3.79"/><path vector-effect="non-scaling-stroke" fill="#FFF" d="M308.616 127.164l3.79-3.79 3.79 3.79-3.79 3.79-3.79-3.79"/><path vector-effect="non-scaling-stroke" fill="#FFF" d="M312.06 123.72l3.792-3.792 3.79 3.79-3.79 3.79-3.79-3.79"/><path vector-effect="non-scaling-stroke" fill="#FFF" d="M315.507 120.273l3.79-3.79 3.79 3.79-3.79 3.79-3.79-3.79"/><path vector-effect="non-scaling-stroke" fill="#FFF" d="M318.953 116.826l3.79-3.79 3.79 3.79-3.79 3.79-3.79-3.79"/><path vector-effect="non-scaling-stroke" fill="#FFF" d="M322.4 113.38l3.79-3.79 3.79 3.79-3.79 3.79-3.79-3.79"/><path vector-effect="non-scaling-stroke" fill="#FFF" d="M325.845 109.934l3.79-3.79 3.792 3.79-3.79 3.79-3.792-3.79"/><path vector-effect="non-scaling-stroke" fill="#FFF" d="M329.29 106.488l3.792-3.79 3.79 3.79-3.79 3.79-3.79-3.79"/><path vector-effect="non-scaling-stroke" fill="#FFF" d="M332.737 103.042l3.79-3.79 3.79 3.79-3.79 3.79-3.79-3.79"/><path vector-effect="non-scaling-stroke" fill="#FFF" d="M336.183 99.596l3.79-3.79 3.79 3.79-3.79 3.79-3.79-3.79"/><path vector-effect="non-scaling-stroke" d="M339.63 96.15l3.79-3.79 3.79 3.79-3.79 3.79-3.79-3.79"/><path vector-effect="non-scaling-stroke" fill="#FFF" d="M343.076 92.704l3.79-3.79 3.79 3.79-3.79 3.79-3.79-3.79"/><path vector-effect="non-scaling-stroke" fill="#FFF" d="M346.522 89.258l3.79-3.79 3.79 3.79-3.79 3.79-3.79-3.79"/><path vector-effect="non-scaling-stroke" fill="#FFF" d="M349.968 85.812l3.79-3.79 3.79 3.79-3.79 3.79-3.79-3.79"/><path vector-effect="non-scaling-stroke" fill="#FFF" d="M353.413 82.366l3.79-3.79 3.792 3.79-3.79 3.79-3.792-3.79"/><path vector-effect="non-scaling-stroke" fill="#FFF" d="M356.86 78.92l3.79-3.79 3.792 3.79-3.79 3.79-3.792-3.79"/><path vector-effect="non-scaling-stroke" fill="#FFF" d="M360.306 75.474l3.79-3.79 3.792 3.79-3.79 3.79-3.792-3.79"/><path vector-effect="non-scaling-stroke" fill="#FFF" d="M363.752 72.028l3.79-3.79 3.792 3.79-3.79 3.79-3.792-3.79"/><path vector-effect="non-scaling-stroke" fill="#FFF" d="M367.198 68.582l3.79-3.79 3.792 3.79-3.79 3.79-3.792-3.79"/><path vector-effect="non-scaling-stroke" fill="#390" d="M301.723 140.948l3.79-3.79 3.792 3.79-3.79 3.79-3.792-3.79"/><path vector-effect="non-scaling-stroke" fill="#390" d="M305.17 137.502l3.79-3.79 3.79 3.79-3.79 3.79-3.79-3.79"/><path vector-effect="non-scaling-stroke" fill="#390" d="M308.616 134.056l3.79-3.79 3.79 3.79-3.79 3.79-3.79-3.79"/><path vector-effect="non-scaling-stroke" fill="#390" d="M312.062 130.61l3.79-3.79 3.79 3.79-3.79 3.79-3.79-3.79"/><path vector-effect="non-scaling-stroke" fill="#390" d="M315.507 127.165l3.79-3.79 3.79 3.79-3.79 3.79-3.79-3.79"/><path vector-effect="non-scaling-stroke" fill="#390" d="M318.953 123.72l3.79-3.792 3.79 3.79-3.79 3.79-3.79-3.79"/><path vector-effect="non-scaling-stroke" fill="#390" d="M322.4 120.273l3.79-3.79 3.79 3.79-3.79 3.79-3.79-3.79"/><path vector-effect="non-scaling-stroke" fill="#FFF" d="M325.845 116.826l3.79-3.79 3.792 3.79-3.79 3.79-3.792-3.79"/><path vector-effect="non-scaling-stroke" d="M329.29 113.38l3.792-3.79 3.79 3.79-3.79 3.79-3.79-3.79"/><path vector-effect="non-scaling-stroke" fill="#FFF" d="M332.737 109.934l3.79-3.79 3.792 3.79-3.792 3.79-3.79-3.79"/><path vector-effect="non-scaling-stroke" d="M336.183 106.488l3.79-3.79 3.79 3.79-3.79 3.79-3.79-3.79"/><path vector-effect="non-scaling-stroke" fill="#FFF" d="M339.63 103.042l3.79-3.79 3.79 3.79-3.79 3.79-3.79-3.79"/><path vector-effect="non-scaling-stroke" d="M343.076 99.596l3.79-3.79 3.79 3.79-3.79 3.79-3.79-3.79"/><path vector-effect="non-scaling-stroke" fill="#FFF" d="M346.522 96.15l3.79-3.79 3.79 3.79-3.79 3.79-3.79-3.79"/><path vector-effect="non-scaling-stroke" fill="#06C" d="M349.968 92.704l3.79-3.79 3.79 3.79-3.79 3.79-3.79-3.79"/><path vector-effect="non-scaling-stroke" fill="#06C" d="M353.414 89.258l3.79-3.79 3.79 3.79-3.79 3.79-3.79-3.79"/><path vector-effect="non-scaling-stroke" fill="#06C" d="M356.86 85.812l3.79-3.79 3.792 3.79-3.79 3.79-3.792-3.79"/><path vector-effect="non-scaling-stroke" fill="#06C" d="M360.306 82.366l3.79-3.79 3.792 3.79-3.79 3.79-3.792-3.79"/><path vector-effect="non-scaling-stroke" fill="#06C" d="M363.752 78.92l3.79-3.79 3.792 3.79-3.79 3.79-3.792-3.79"/><path vector-effect="non-scaling-stroke" fill="#06C" d="M367.198 75.474l3.79-3.79 3.792 3.79-3.79 3.79-3.792-3.79"/><path vector-effect="non-scaling-stroke" fill="#06C" d="M370.644 72.028l3.79-3.79 3.792 3.79-3.79 3.79-3.792-3.79"/><path vector-effect="non-scaling-stroke" fill="#390" d="M305.17 144.394l3.79-3.79 3.79 3.79-3.79 3.79-3.79-3.79"/><path vector-effect="non-scaling-stroke" fill="#FFF" d="M308.616 140.948l3.79-3.79 3.79 3.79-3.79 3.79-3.79-3.79"/><path vector-effect="non-scaling-stroke" fill="#FFF" d="M312.062 137.502l3.79-3.79 3.79 3.79-3.79 3.79-3.79-3.79"/><path vector-effect="non-scaling-stroke" fill="#FFF" d="M315.508 134.056l3.79-3.79 3.79 3.79-3.79 3.79-3.79-3.79"/><path vector-effect="non-scaling-stroke" fill="#FFF" d="M318.953 130.61l3.79-3.79 3.79 3.79-3.79 3.79-3.79-3.79"/><path vector-effect="non-scaling-stroke" fill="#FFF" d="M322.4 127.165l3.79-3.79 3.79 3.79-3.79 3.79-3.79-3.79"/><path vector-effect="non-scaling-stroke" fill="#390" d="M325.845 123.72l3.79-3.792 3.792 3.79-3.79 3.79-3.792-3.79"/><path vector-effect="non-scaling-stroke" fill="#FFF" d="M329.29 120.273l3.792-3.79 3.79 3.79-3.79 3.79-3.79-3.79"/><path vector-effect="non-scaling-stroke" fill="#FFF" d="M332.737 116.826l3.79-3.79 3.792 3.79-3.792 3.79-3.79-3.79"/><path vector-effect="non-scaling-stroke" fill="#FFF" d="M336.183 113.38l3.79-3.79 3.792 3.79-3.79 3.79-3.792-3.79"/><path vector-effect="non-scaling-stroke" d="M339.63 109.934l3.79-3.79 3.79 3.79-3.79 3.79-3.79-3.79"/><path vector-effect="non-scaling-stroke" d="M343.076 106.488l3.79-3.79 3.79 3.79-3.79 3.79-3.79-3.79"/><path vector-effect="non-scaling-stroke" d="M346.522 103.042l3.79-3.79 3.79 3.79-3.79 3.79-3.79-3.79"/><path vector-effect="non-scaling-stroke" fill="#FFF" d="M349.968 99.596l3.79-3.79 3.79 3.79-3.79 3.79-3.79-3.79"/><path vector-effect="non-scaling-stroke" fill="#06C" d="M353.414 96.15l3.79-3.79 3.79 3.79-3.79 3.79-3.79-3.79"/><path vector-effect="non-scaling-stroke" fill="#FFF" d="M356.86 92.705l3.79-3.79 3.792 3.79-3.79 3.79-3.792-3.79"/><path vector-effect="non-scaling-stroke" fill="#FFF" d="M360.306 89.26l3.79-3.792 3.792 3.79-3.79 3.79-3.792-3.79"/><path vector-effect="non-scaling-stroke" fill="#FFF" d="M363.752 85.812l3.79-3.79 3.792 3.79-3.79 3.79-3.792-3.79"/><path vector-effect="non-scaling-stroke" fill="#FFF" d="M367.198 82.366l3.79-3.79 3.792 3.79-3.79 3.79-3.792-3.79"/><path vector-effect="non-scaling-stroke" fill="#FFF" d="M370.644 78.92l3.79-3.79 3.792 3.79-3.79 3.79-3.792-3.79"/><path vector-effect="non-scaling-stroke" fill="#06C" d="M374.09 75.474l3.79-3.79 3.79 3.79-3.79 3.79-3.79-3.79"/><path vector-effect="non-scaling-stroke" fill="#390" d="M308.616 147.84l3.79-3.79 3.79 3.79-3.79 3.79-3.79-3.79"/><path vector-effect="non-scaling-stroke" fill="#FFF" d="M312.062 144.394l3.79-3.79 3.79 3.79-3.79 3.79-3.79-3.79"/><path vector-effect="non-scaling-stroke" d="M315.508 140.948l3.79-3.79 3.79 3.79-3.79 3.79-3.79-3.79"/><path vector-effect="non-scaling-stroke" d="M318.954 137.502l3.79-3.79 3.79 3.79-3.79 3.79-3.79-3.79"/><path vector-effect="non-scaling-stroke" d="M322.4 134.057l3.79-3.79 3.79 3.79-3.79 3.79-3.79-3.79"/><path vector-effect="non-scaling-stroke" fill="#FFF" d="M325.845 130.61l3.79-3.79 3.792 3.79-3.79 3.79-3.792-3.79"/><path vector-effect="non-scaling-stroke" fill="#390" d="M329.29 127.165l3.792-3.79 3.79 3.79-3.79 3.79-3.79-3.79"/><path vector-effect="non-scaling-stroke" fill="#FFF" d="M332.737 123.72l3.79-3.792 3.792 3.79-3.792 3.79-3.79-3.79"/><path vector-effect="non-scaling-stroke" d="M336.183 120.273l3.79-3.79 3.792 3.79-3.79 3.79-3.792-3.79"/><path vector-effect="non-scaling-stroke" d="M339.63 116.826l3.79-3.79 3.79 3.79-3.79 3.79-3.79-3.79"/><path vector-effect="non-scaling-stroke" d="M343.076 113.38l3.79-3.79 3.79 3.79-3.79 3.79-3.79-3.79"/><path vector-effect="non-scaling-stroke" d="M346.522 109.934l3.79-3.79 3.79 3.79-3.79 3.79-3.79-3.79"/><path vector-effect="non-scaling-stroke" d="M349.968 106.488l3.79-3.79 3.79 3.79-3.79 3.79-3.79-3.79"/><path vector-effect="non-scaling-stroke" fill="#FFF" d="M353.414 103.042l3.79-3.79 3.79 3.79-3.79 3.79-3.79-3.79"/><path vector-effect="non-scaling-stroke" fill="#06C" d="M356.86 99.596l3.79-3.79 3.79 3.79-3.79 3.79-3.79-3.79"/><path vector-effect="non-scaling-stroke" fill="#FFF" d="M360.306 96.15l3.79-3.79 3.792 3.79-3.79 3.79-3.792-3.79"/><path vector-effect="non-scaling-stroke" d="M363.752 92.705l3.79-3.79 3.792 3.79-3.79 3.79-3.792-3.79"/><path vector-effect="non-scaling-stroke" d="M367.198 89.26l3.79-3.792 3.792 3.79-3.79 3.79-3.792-3.79"/><path vector-effect="non-scaling-stroke" d="M370.644 85.812l3.79-3.79 3.792 3.79-3.79 3.79-3.792-3.79"/><path vector-effect="non-scaling-stroke" fill="#FFF" d="M374.09 82.366l3.79-3.79 3.79 3.79-3.79 3.79-3.79-3.79"/><path vector-effect="non-scaling-stroke" fill="#06C" d="M377.536 78.92l3.79-3.79 3.79 3.79-3.79 3.79-3.79-3.79"/><path vector-effect="non-scaling-stroke" fill="#390" d="M312.062 151.286l3.79-3.79 3.79 3.79-3.79 3.79-3.79-3.79"/><path vector-effect="non-scaling-stroke" fill="#FFF" d="M315.508 147.84l3.79-3.79 3.79 3.79-3.79 3.79-3.79-3.79"/><path vector-effect="non-scaling-stroke" d="M318.954 144.394l3.79-3.79 3.79 3.79-3.79 3.79-3.79-3.79"/><path vector-effect="non-scaling-stroke" d="M322.4 140.948l3.79-3.79 3.79 3.79-3.79 3.79-3.79-3.79"/><path vector-effect="non-scaling-stroke" d="M325.845 137.503l3.79-3.79 3.792 3.79-3.79 3.79-3.792-3.79"/><path vector-effect="non-scaling-stroke" fill="#FFF" d="M329.29 134.057l3.792-3.79 3.79 3.79-3.79 3.79-3.79-3.79"/><path vector-effect="non-scaling-stroke" fill="#390" d="M332.737 130.61l3.79-3.79 3.792 3.79-3.792 3.79-3.79-3.79"/><path vector-effect="non-scaling-stroke" fill="#FFF" d="M336.183 127.165l3.79-3.79 3.792 3.79-3.79 3.79-3.792-3.79"/><path vector-effect="non-scaling-stroke" d="M339.63 123.72l3.79-3.792 3.79 3.79-3.79 3.79-3.79-3.79"/><path vector-effect="non-scaling-stroke" fill="#FFF" d="M343.076 120.273l3.79-3.79 3.79 3.79-3.79 3.79-3.79-3.79"/><path vector-effect="non-scaling-stroke" fill="#FFF" d="M346.522 116.826l3.79-3.79 3.79 3.79-3.79 3.79-3.79-3.79"/><path vector-effect="non-scaling-stroke" fill="#FFF" d="M349.968 113.38l3.79-3.79 3.79 3.79-3.79 3.79-3.79-3.79"/><path vector-effect="non-scaling-stroke" fill="#FFF" d="M353.414 109.934l3.79-3.79 3.79 3.79-3.79 3.79-3.79-3.79"/><path vector-effect="non-scaling-stroke" fill="#FFF" d="M356.86 106.488l3.79-3.79 3.79 3.79-3.79 3.79-3.79-3.79"/><path vector-effect="non-scaling-stroke" fill="#06C" d="M360.306 103.042l3.79-3.79 3.79 3.79-3.79 3.79-3.79-3.79"/><path vector-effect="non-scaling-stroke" fill="#FFF" d="M363.752 99.597l3.79-3.79 3.792 3.79-3.79 3.79-3.792-3.79"/><path vector-effect="non-scaling-stroke" d="M367.198 96.15l3.79-3.79 3.792 3.79-3.79 3.79-3.792-3.79"/><path vector-effect="non-scaling-stroke" d="M370.644 92.705l3.79-3.79 3.792 3.79-3.79 3.79-3.792-3.79"/><path vector-effect="non-scaling-stroke" d="M374.09 89.26l3.79-3.792 3.79 3.79-3.79 3.79-3.79-3.79"/><path vector-effect="non-scaling-stroke" fill="#FFF" d="M377.536 85.812l3.79-3.79 3.79 3.79-3.79 3.79-3.79-3.79"/><path vector-effect="non-scaling-stroke" fill="#06C" d="M380.982 82.366l3.79-3.79 3.79 3.79-3.79 3.79-3.79-3.79"/><path vector-effect="non-scaling-stroke" fill="#390" d="M315.508 154.734l3.79-3.79 3.79 3.79-3.79 3.79-3.79-3.79"/><path vector-effect="non-scaling-stroke" fill="#FFF" d="M318.954 151.286l3.79-3.79 3.79 3.79-3.79 3.79-3.79-3.79"/><path vector-effect="non-scaling-stroke" d="M322.4 147.84l3.79-3.79 3.79 3.79-3.79 3.79-3.79-3.79"/><path vector-effect="non-scaling-stroke" d="M325.846 144.394l3.79-3.79 3.79 3.79-3.79 3.79-3.79-3.79"/><path vector-effect="non-scaling-stroke" d="M329.29 140.95l3.792-3.792 3.79 3.79-3.79 3.79-3.79-3.79"/><path vector-effect="non-scaling-stroke" fill="#FFF" d="M332.737 137.503l3.79-3.79 3.792 3.79-3.792 3.79-3.79-3.79"/><path vector-effect="non-scaling-stroke" fill="#390" d="M336.183 134.057l3.79-3.79 3.792 3.79-3.79 3.79-3.792-3.79"/><path vector-effect="non-scaling-stroke" fill="#FFF" d="M339.63 130.61l3.79-3.79 3.79 3.79-3.79 3.79-3.79-3.79"/><path vector-effect="non-scaling-stroke" fill="#FFF" d="M343.076 127.165l3.79-3.79 3.79 3.79-3.79 3.79-3.79-3.79"/><path vector-effect="non-scaling-stroke" d="M346.522 123.72l3.79-3.792 3.79 3.79-3.79 3.79-3.79-3.79"/><path vector-effect="non-scaling-stroke" d="M349.968 120.273l3.79-3.79 3.79 3.79-3.79 3.79-3.79-3.79"/><path vector-effect="non-scaling-stroke" fill="#FFF" d="M353.414 116.826l3.79-3.79 3.79 3.79-3.79 3.79-3.79-3.79"/><path vector-effect="non-scaling-stroke" d="M356.86 113.38l3.79-3.79 3.79 3.79-3.79 3.79-3.79-3.79"/><path vector-effect="non-scaling-stroke" fill="#FFF" d="M360.306 109.934l3.79-3.79 3.79 3.79-3.79 3.79-3.79-3.79"/><path vector-effect="non-scaling-stroke" fill="#06C" d="M363.752 106.488l3.79-3.79 3.79 3.79-3.79 3.79-3.79-3.79"/><path vector-effect="non-scaling-stroke" fill="#FFF" d="M367.198 103.043l3.79-3.79 3.792 3.79-3.79 3.79-3.792-3.79"/><path vector-effect="non-scaling-stroke" d="M370.644 99.597l3.79-3.79 3.792 3.79-3.79 3.79-3.792-3.79"/><path vector-effect="non-scaling-stroke" d="M374.09 96.15l3.79-3.79 3.79 3.79-3.79 3.79-3.79-3.79"/><path vector-effect="non-scaling-stroke" d="M377.536 92.705l3.79-3.79 3.79 3.79-3.79 3.79-3.79-3.79"/><path vector-effect="non-scaling-stroke" fill="#FFF" d="M380.982 89.26l3.79-3.792 3.79 3.79-3.79 3.79-3.79-3.79"/><path vector-effect="non-scaling-stroke" fill="#06C" d="M384.428 85.812l3.79-3.79 3.79 3.79-3.79 3.79-3.79-3.79"/><path vector-effect="non-scaling-stroke" fill="#390" d="M318.953 158.178l3.79-3.79 3.79 3.79-3.79 3.79-3.79-3.79"/><path vector-effect="non-scaling-stroke" fill="#FFF" d="M322.4 154.732l3.79-3.79 3.79 3.79-3.79 3.79-3.79-3.79"/><path vector-effect="non-scaling-stroke" fill="#FFF" d="M325.845 151.286l3.79-3.79 3.792 3.79-3.79 3.79-3.792-3.79"/><path vector-effect="non-scaling-stroke" fill="#FFF" d="M329.29 147.84l3.792-3.79 3.79 3.79-3.79 3.79-3.79-3.79"/><path vector-effect="non-scaling-stroke" fill="#FFF" d="M332.737 144.394l3.79-3.79 3.79 3.79-3.79 3.79-3.79-3.79"/><path vector-effect="non-scaling-stroke" fill="#FFF" d="M336.183 140.948l3.79-3.79 3.79 3.79-3.79 3.79-3.79-3.79"/><path vector-effect="non-scaling-stroke" fill="#390" d="M339.63 137.502l3.79-3.79 3.79 3.79-3.79 3.79-3.79-3.79"/><path vector-effect="non-scaling-stroke" fill="#FFF" d="M343.076 134.056l3.79-3.79 3.79 3.79-3.79 3.79-3.79-3.79"/><path vector-effect="non-scaling-stroke" d="M346.522 130.61l3.79-3.79 3.79 3.79-3.79 3.79-3.79-3.79"/><path vector-effect="non-scaling-stroke" fill="#FFF" d="M349.968 127.164l3.79-3.79 3.79 3.79-3.79 3.79-3.79-3.79"/><path vector-effect="non-scaling-stroke" d="M353.413 123.72l3.79-3.792 3.792 3.79-3.79 3.79-3.792-3.79"/><path vector-effect="non-scaling-stroke" fill="#FFF" d="M356.86 120.273l3.79-3.79 3.792 3.79-3.79 3.79-3.792-3.79"/><path vector-effect="non-scaling-stroke" d="M360.306 116.826l3.79-3.79 3.792 3.79-3.79 3.79-3.792-3.79"/><path vector-effect="non-scaling-stroke" fill="#FFF" d="M363.752 113.38l3.79-3.79 3.792 3.79-3.79 3.79-3.792-3.79"/><path vector-effect="non-scaling-stroke" fill="#06C" d="M367.198 109.934l3.79-3.79 3.792 3.79-3.79 3.79-3.792-3.79"/><path vector-effect="non-scaling-stroke" fill="#FFF" d="M370.644 106.488l3.79-3.79 3.79 3.79-3.79 3.79-3.79-3.79"/><path vector-effect="non-scaling-stroke" fill="#FFF" d="M374.09 103.042l3.79-3.79 3.79 3.79-3.79 3.79-3.79-3.79"/><path vector-effect="non-scaling-stroke" fill="#FFF" d="M377.536 99.596l3.79-3.79 3.79 3.79-3.79 3.79-3.79-3.79"/><path vector-effect="non-scaling-stroke" fill="#FFF" d="M380.982 96.15l3.79-3.79 3.79 3.79-3.79 3.79-3.79-3.79"/><path vector-effect="non-scaling-stroke" fill="#FFF" d="M384.428 92.704l3.79-3.79 3.79 3.79-3.79 3.79-3.79-3.79"/><path vector-effect="non-scaling-stroke" fill="#06C" d="M387.874 89.258l3.79-3.79 3.79 3.79-3.79 3.79-3.79-3.79"/><path vector-effect="non-scaling-stroke" fill="#390" d="M322.4 161.624l3.79-3.79 3.79 3.79-3.79 3.79-3.79-3.79"/><path vector-effect="non-scaling-stroke" fill="#390" d="M325.845 158.178l3.79-3.79 3.792 3.79-3.79 3.79-3.792-3.79"/><path vector-effect="non-scaling-stroke" fill="#390" d="M329.29 154.732l3.792-3.79 3.79 3.79-3.79 3.79-3.79-3.79"/><path vector-effect="non-scaling-stroke" fill="#390" d="M332.737 151.286l3.79-3.79 3.792 3.79-3.792 3.79-3.79-3.79"/><path vector-effect="non-scaling-stroke" fill="#390" d="M336.183 147.84l3.79-3.79 3.79 3.79-3.79 3.79-3.79-3.79"/><path vector-effect="non-scaling-stroke" fill="#390" d="M339.63 144.394l3.79-3.79 3.79 3.79-3.79 3.79-3.79-3.79"/><path vector-effect="non-scaling-stroke" fill="#390" d="M343.076 140.948l3.79-3.79 3.79 3.79-3.79 3.79-3.79-3.79"/><path vector-effect="non-scaling-stroke" fill="#FFF" d="M346.522 137.502l3.79-3.79 3.79 3.79-3.79 3.79-3.79-3.79"/><path vector-effect="non-scaling-stroke" d="M349.968 134.056l3.79-3.79 3.79 3.79-3.79 3.79-3.79-3.79"/><path vector-effect="non-scaling-stroke" fill="#FFF" d="M353.414 130.61l3.79-3.79 3.79 3.79-3.79 3.79-3.79-3.79"/><path vector-effect="non-scaling-stroke" d="M356.86 127.165l3.79-3.79 3.792 3.79-3.79 3.79-3.792-3.79"/><path vector-effect="non-scaling-stroke" fill="#FFF" d="M360.306 123.72l3.79-3.792 3.792 3.79-3.79 3.79-3.792-3.79"/><path vector-effect="non-scaling-stroke" fill="#FFF" d="M363.752 120.273l3.79-3.79 3.792 3.79-3.79 3.79-3.792-3.79"/><path vector-effect="non-scaling-stroke" fill="#FFF" d="M367.198 116.826l3.79-3.79 3.792 3.79-3.79 3.79-3.792-3.79"/><path vector-effect="non-scaling-stroke" fill="#06C" d="M370.644 113.38l3.79-3.79 3.792 3.79-3.79 3.79-3.792-3.79"/><path vector-effect="non-scaling-stroke" fill="#06C" d="M374.09 109.934l3.79-3.79 3.79 3.79-3.79 3.79-3.79-3.79"/><path vector-effect="non-scaling-stroke" fill="#06C" d="M377.536 106.488l3.79-3.79 3.79 3.79-3.79 3.79-3.79-3.79"/><path vector-effect="non-scaling-stroke" fill="#06C" d="M380.982 103.042l3.79-3.79 3.79 3.79-3.79 3.79-3.79-3.79"/><path vector-effect="non-scaling-stroke" fill="#06C" d="M384.428 99.596l3.79-3.79 3.79 3.79-3.79 3.79-3.79-3.79"/><path vector-effect="non-scaling-stroke" fill="#06C" d="M387.874 96.15l3.79-3.79 3.79 3.79-3.79 3.79-3.79-3.79"/><path vector-effect="non-scaling-stroke" fill="#06C" d="M391.318 92.704l3.79-3.79 3.79 3.79-3.79 3.79-3.79-3.79"/></svg>